<mxfile host="app.diagrams.net" modified="2023-06-07T09:59:18.020Z" agent="Mozilla/5.0 (Windows NT 10.0; Win64; x64) AppleWebKit/537.36 (KHTML, like Gecko) Chrome/112.0.0.0 Safari/537.36" etag="1vhZpLhv3NXWciYDrXok" version="21.3.6" type="github">
  <diagram name="Page-1" id="89m8f8lSCJtbBzwiYutm">
    <mxGraphModel dx="1434" dy="798" grid="1" gridSize="10" guides="1" tooltips="1" connect="1" arrows="1" fold="1" page="1" pageScale="1" pageWidth="1169" pageHeight="827" math="0" shadow="0">
      <root>
        <mxCell id="0" />
        <mxCell id="1" parent="0" />
        <mxCell id="Pvti1awx0MB7TDvEXVVF-38" style="edgeStyle=orthogonalEdgeStyle;rounded=0;orthogonalLoop=1;jettySize=auto;html=1;exitX=0.5;exitY=0.5;exitDx=0;exitDy=0;exitPerimeter=0;entryX=0.5;entryY=0;entryDx=0;entryDy=0;strokeColor=#A8201A;fontColor=#143642;fillColor=#FAE5C7;" edge="1" parent="1" source="Pvti1awx0MB7TDvEXVVF-2" target="Pvti1awx0MB7TDvEXVVF-9">
          <mxGeometry relative="1" as="geometry" />
        </mxCell>
        <mxCell id="Pvti1awx0MB7TDvEXVVF-2" value="Actor" style="shape=umlActor;verticalLabelPosition=bottom;verticalAlign=top;html=1;outlineConnect=0;labelBackgroundColor=none;fillColor=#FAE5C7;strokeColor=#0F8B8D;fontColor=#143642;" vertex="1" parent="1">
          <mxGeometry x="565" y="30" width="30" height="60" as="geometry" />
        </mxCell>
        <mxCell id="Pvti1awx0MB7TDvEXVVF-3" value="&lt;b&gt;EXTAM&lt;/b&gt;" style="rounded=1;whiteSpace=wrap;html=1;labelBackgroundColor=none;fillColor=#FAE5C7;strokeColor=#0F8B8D;fontColor=#143642;" vertex="1" parent="1">
          <mxGeometry x="520" y="270" width="120" height="60" as="geometry" />
        </mxCell>
        <mxCell id="Pvti1awx0MB7TDvEXVVF-4" value="&lt;b&gt;EXTGW&lt;/b&gt;" style="rounded=1;whiteSpace=wrap;html=1;labelBackgroundColor=none;fillColor=#FAE5C7;strokeColor=#0F8B8D;fontColor=#143642;" vertex="1" parent="1">
          <mxGeometry x="760" y="270" width="120" height="60" as="geometry" />
        </mxCell>
        <mxCell id="Pvti1awx0MB7TDvEXVVF-5" value="&lt;b&gt;INTGW&lt;/b&gt;" style="rounded=1;whiteSpace=wrap;html=1;labelBackgroundColor=none;fillColor=#FAE5C7;strokeColor=#0F8B8D;fontColor=#143642;" vertex="1" parent="1">
          <mxGeometry x="760" y="540" width="120" height="60" as="geometry" />
        </mxCell>
        <mxCell id="Pvti1awx0MB7TDvEXVVF-6" value="&lt;b&gt;INTAM&lt;/b&gt;" style="rounded=1;whiteSpace=wrap;html=1;labelBackgroundColor=none;fillColor=#FAE5C7;strokeColor=#0F8B8D;fontColor=#143642;" vertex="1" parent="1">
          <mxGeometry x="520" y="540" width="120" height="60" as="geometry" />
        </mxCell>
        <mxCell id="Pvti1awx0MB7TDvEXVVF-7" value="&lt;b&gt;WSO2IS&lt;/b&gt;" style="rounded=1;whiteSpace=wrap;html=1;labelBackgroundColor=none;fillColor=#FAE5C7;strokeColor=#0F8B8D;fontColor=#143642;" vertex="1" parent="1">
          <mxGeometry x="420" y="400" width="120" height="60" as="geometry" />
        </mxCell>
        <mxCell id="Pvti1awx0MB7TDvEXVVF-8" value="&lt;b&gt;NGINX&lt;/b&gt;" style="rounded=1;whiteSpace=wrap;html=1;labelBackgroundColor=none;fillColor=#FAE5C7;strokeColor=#0F8B8D;fontColor=#143642;" vertex="1" parent="1">
          <mxGeometry x="640" y="400" width="120" height="60" as="geometry" />
        </mxCell>
        <mxCell id="Pvti1awx0MB7TDvEXVVF-9" value="&lt;b&gt;HAPROXY&lt;/b&gt;" style="rounded=1;whiteSpace=wrap;html=1;labelBackgroundColor=none;fillColor=#FAE5C7;strokeColor=#0F8B8D;fontColor=#143642;" vertex="1" parent="1">
          <mxGeometry x="610" y="130" width="180" height="90" as="geometry" />
        </mxCell>
        <mxCell id="Pvti1awx0MB7TDvEXVVF-10" value="&lt;b&gt;&lt;br&gt;&lt;br&gt;&lt;br&gt;&lt;br&gt;&lt;br&gt;WSO2AM_DBEXT&lt;br&gt;WSO2SHARED_DBEXT&lt;br&gt;&lt;br&gt;&lt;br&gt;&lt;/b&gt;&lt;b style=&quot;border-color: var(--border-color);&quot;&gt;WSO2IS_IDENTITY_DB&lt;br style=&quot;border-color: var(--border-color);&quot;&gt;WSO2IS_SHARED_DB&lt;br&gt;&lt;/b&gt;&lt;b&gt;&lt;br&gt;&lt;br&gt;WSO2AM_DBINT&lt;br&gt;WSO2SHARED_DBINT&lt;br&gt;&lt;br&gt;&lt;/b&gt;" style="strokeWidth=2;html=1;shape=mxgraph.flowchart.database;whiteSpace=wrap;labelBackgroundColor=none;fillColor=#FAE5C7;strokeColor=#0F8B8D;fontColor=#143642;" vertex="1" parent="1">
          <mxGeometry x="130" y="220" width="220" height="370" as="geometry" />
        </mxCell>
        <mxCell id="Pvti1awx0MB7TDvEXVVF-14" value="" style="endArrow=none;dashed=1;html=1;dashPattern=1 3;strokeWidth=2;rounded=0;labelBackgroundColor=none;strokeColor=#A8201A;fontColor=default;" edge="1" parent="1">
          <mxGeometry width="50" height="50" relative="1" as="geometry">
            <mxPoint x="520" y="240" as="sourcePoint" />
            <mxPoint x="880" y="240" as="targetPoint" />
          </mxGeometry>
        </mxCell>
        <mxCell id="Pvti1awx0MB7TDvEXVVF-15" value="" style="endArrow=classic;html=1;rounded=0;entryX=0.5;entryY=0;entryDx=0;entryDy=0;exitX=0.5;exitY=1;exitDx=0;exitDy=0;labelBackgroundColor=none;strokeColor=#A8201A;fontColor=default;" edge="1" parent="1" source="Pvti1awx0MB7TDvEXVVF-9" target="Pvti1awx0MB7TDvEXVVF-8">
          <mxGeometry width="50" height="50" relative="1" as="geometry">
            <mxPoint x="560" y="250" as="sourcePoint" />
            <mxPoint x="610" y="200" as="targetPoint" />
          </mxGeometry>
        </mxCell>
        <mxCell id="Pvti1awx0MB7TDvEXVVF-16" value="" style="endArrow=classic;html=1;rounded=0;exitX=0.5;exitY=0;exitDx=0;exitDy=0;entryX=0.5;entryY=1;entryDx=0;entryDy=0;labelBackgroundColor=none;strokeColor=#A8201A;fontColor=default;" edge="1" parent="1" source="Pvti1awx0MB7TDvEXVVF-8" target="Pvti1awx0MB7TDvEXVVF-3">
          <mxGeometry width="50" height="50" relative="1" as="geometry">
            <mxPoint x="560" y="450" as="sourcePoint" />
            <mxPoint x="610" y="400" as="targetPoint" />
          </mxGeometry>
        </mxCell>
        <mxCell id="Pvti1awx0MB7TDvEXVVF-18" value="" style="endArrow=classic;html=1;rounded=0;entryX=0.5;entryY=0;entryDx=0;entryDy=0;exitX=0.5;exitY=1;exitDx=0;exitDy=0;labelBackgroundColor=none;strokeColor=#A8201A;fontColor=default;" edge="1" parent="1" source="Pvti1awx0MB7TDvEXVVF-8" target="Pvti1awx0MB7TDvEXVVF-6">
          <mxGeometry width="50" height="50" relative="1" as="geometry">
            <mxPoint x="640" y="450" as="sourcePoint" />
            <mxPoint x="635" y="414" as="targetPoint" />
          </mxGeometry>
        </mxCell>
        <mxCell id="Pvti1awx0MB7TDvEXVVF-19" value="" style="endArrow=classic;html=1;rounded=0;entryX=0.5;entryY=0;entryDx=0;entryDy=0;exitX=0.5;exitY=1;exitDx=0;exitDy=0;labelBackgroundColor=none;strokeColor=#A8201A;fontColor=default;" edge="1" parent="1" source="Pvti1awx0MB7TDvEXVVF-8" target="Pvti1awx0MB7TDvEXVVF-5">
          <mxGeometry width="50" height="50" relative="1" as="geometry">
            <mxPoint x="640" y="460" as="sourcePoint" />
            <mxPoint x="660" y="410" as="targetPoint" />
          </mxGeometry>
        </mxCell>
        <mxCell id="Pvti1awx0MB7TDvEXVVF-20" value="" style="endArrow=classic;html=1;rounded=0;entryX=1;entryY=0.5;entryDx=0;entryDy=0;exitX=0;exitY=0.5;exitDx=0;exitDy=0;labelBackgroundColor=none;strokeColor=#A8201A;fontColor=default;" edge="1" parent="1" source="Pvti1awx0MB7TDvEXVVF-8" target="Pvti1awx0MB7TDvEXVVF-7">
          <mxGeometry width="50" height="50" relative="1" as="geometry">
            <mxPoint x="640" y="450" as="sourcePoint" />
            <mxPoint x="610" y="400" as="targetPoint" />
          </mxGeometry>
        </mxCell>
        <mxCell id="Pvti1awx0MB7TDvEXVVF-21" value="" style="endArrow=classic;html=1;rounded=0;entryX=0.5;entryY=1;entryDx=0;entryDy=0;exitX=0.5;exitY=0;exitDx=0;exitDy=0;labelBackgroundColor=none;strokeColor=#A8201A;fontColor=default;" edge="1" parent="1" source="Pvti1awx0MB7TDvEXVVF-8" target="Pvti1awx0MB7TDvEXVVF-4">
          <mxGeometry width="50" height="50" relative="1" as="geometry">
            <mxPoint x="560" y="450" as="sourcePoint" />
            <mxPoint x="610" y="400" as="targetPoint" />
          </mxGeometry>
        </mxCell>
        <mxCell id="Pvti1awx0MB7TDvEXVVF-27" value="" style="endArrow=classic;html=1;rounded=0;exitX=0;exitY=0.5;exitDx=0;exitDy=0;dashed=1;labelBackgroundColor=none;strokeColor=#A8201A;fontColor=default;" edge="1" parent="1" source="Pvti1awx0MB7TDvEXVVF-3" target="Pvti1awx0MB7TDvEXVVF-10">
          <mxGeometry width="50" height="50" relative="1" as="geometry">
            <mxPoint x="560" y="450" as="sourcePoint" />
            <mxPoint x="610" y="400" as="targetPoint" />
          </mxGeometry>
        </mxCell>
        <mxCell id="Pvti1awx0MB7TDvEXVVF-28" value="" style="endArrow=classic;html=1;rounded=0;entryX=0.991;entryY=0.751;entryDx=0;entryDy=0;entryPerimeter=0;exitX=0;exitY=0.5;exitDx=0;exitDy=0;dashed=1;labelBackgroundColor=none;strokeColor=#A8201A;fontColor=default;" edge="1" parent="1" source="Pvti1awx0MB7TDvEXVVF-6" target="Pvti1awx0MB7TDvEXVVF-10">
          <mxGeometry width="50" height="50" relative="1" as="geometry">
            <mxPoint x="560" y="450" as="sourcePoint" />
            <mxPoint x="610" y="400" as="targetPoint" />
          </mxGeometry>
        </mxCell>
        <mxCell id="Pvti1awx0MB7TDvEXVVF-29" value="" style="endArrow=classic;html=1;rounded=0;exitX=0;exitY=0.5;exitDx=0;exitDy=0;dashed=1;entryX=0.995;entryY=0.565;entryDx=0;entryDy=0;entryPerimeter=0;labelBackgroundColor=none;strokeColor=#A8201A;fontColor=default;" edge="1" parent="1" source="Pvti1awx0MB7TDvEXVVF-7" target="Pvti1awx0MB7TDvEXVVF-10">
          <mxGeometry width="50" height="50" relative="1" as="geometry">
            <mxPoint x="560" y="450" as="sourcePoint" />
            <mxPoint x="610" y="400" as="targetPoint" />
          </mxGeometry>
        </mxCell>
        <mxCell id="Pvti1awx0MB7TDvEXVVF-30" value="" style="endArrow=classic;startArrow=classic;html=1;rounded=0;entryX=0;entryY=0.5;entryDx=0;entryDy=0;exitX=1;exitY=0.5;exitDx=0;exitDy=0;exitPerimeter=0;dashed=1;labelBackgroundColor=none;strokeColor=#A8201A;fontColor=default;" edge="1" parent="1" source="Pvti1awx0MB7TDvEXVVF-3" target="Pvti1awx0MB7TDvEXVVF-4">
          <mxGeometry width="50" height="50" relative="1" as="geometry">
            <mxPoint x="560" y="350" as="sourcePoint" />
            <mxPoint x="610" y="300" as="targetPoint" />
          </mxGeometry>
        </mxCell>
        <mxCell id="Pvti1awx0MB7TDvEXVVF-33" value="" style="endArrow=classic;startArrow=classic;html=1;rounded=0;entryX=0;entryY=0.5;entryDx=0;entryDy=0;exitX=1;exitY=0.5;exitDx=0;exitDy=0;dashed=1;labelBackgroundColor=none;strokeColor=#A8201A;fontColor=default;" edge="1" parent="1" source="Pvti1awx0MB7TDvEXVVF-6" target="Pvti1awx0MB7TDvEXVVF-5">
          <mxGeometry width="50" height="50" relative="1" as="geometry">
            <mxPoint x="560" y="350" as="sourcePoint" />
            <mxPoint x="610" y="300" as="targetPoint" />
          </mxGeometry>
        </mxCell>
        <mxCell id="Pvti1awx0MB7TDvEXVVF-35" value="&lt;font size=&quot;1&quot; style=&quot;&quot;&gt;&lt;span style=&quot;font-size: 36px;&quot;&gt;DB&lt;/span&gt;&lt;/font&gt;" style="text;html=1;align=center;verticalAlign=middle;resizable=0;points=[];autosize=1;strokeColor=none;fillColor=none;labelBackgroundColor=none;fontColor=#c70a1d;fontStyle=1" vertex="1" parent="1">
          <mxGeometry x="200" y="250" width="80" height="60" as="geometry" />
        </mxCell>
        <mxCell id="Pvti1awx0MB7TDvEXVVF-39" value="&lt;font size=&quot;1&quot; style=&quot;&quot;&gt;&lt;b style=&quot;font-size: 20px;&quot;&gt;DMZ&lt;/b&gt;&lt;/font&gt;" style="text;html=1;align=center;verticalAlign=middle;resizable=0;points=[];autosize=1;strokeColor=none;fillColor=none;fontColor=#143642;" vertex="1" parent="1">
          <mxGeometry x="810" y="180" width="70" height="40" as="geometry" />
        </mxCell>
        <mxCell id="Pvti1awx0MB7TDvEXVVF-40" value="&lt;font size=&quot;1&quot; style=&quot;&quot;&gt;&lt;b style=&quot;font-size: 20px;&quot;&gt;LAN&lt;/b&gt;&lt;/font&gt;" style="text;html=1;align=center;verticalAlign=middle;resizable=0;points=[];autosize=1;strokeColor=none;fillColor=none;fontColor=#143642;" vertex="1" parent="1">
          <mxGeometry x="815" y="400" width="60" height="40" as="geometry" />
        </mxCell>
        <mxCell id="Pvti1awx0MB7TDvEXVVF-41" value="443" style="text;html=1;align=center;verticalAlign=middle;resizable=0;points=[];autosize=1;strokeColor=none;fillColor=none;fontColor=#143642;" vertex="1" parent="1">
          <mxGeometry x="660" y="358" width="40" height="30" as="geometry" />
        </mxCell>
        <mxCell id="Pvti1awx0MB7TDvEXVVF-43" value="444" style="text;html=1;align=center;verticalAlign=middle;resizable=0;points=[];autosize=1;strokeColor=none;fillColor=none;fontColor=#143642;" vertex="1" parent="1">
          <mxGeometry x="680" y="470" width="40" height="30" as="geometry" />
        </mxCell>
        <mxCell id="Pvti1awx0MB7TDvEXVVF-44" value="445" style="text;html=1;align=center;verticalAlign=middle;resizable=0;points=[];autosize=1;strokeColor=none;fillColor=none;fontColor=#143642;" vertex="1" parent="1">
          <mxGeometry x="600" y="405" width="40" height="30" as="geometry" />
        </mxCell>
        <mxCell id="Pvti1awx0MB7TDvEXVVF-45" value="9443" style="text;html=1;align=center;verticalAlign=middle;resizable=0;points=[];autosize=1;strokeColor=none;fillColor=none;fontColor=#143642;" vertex="1" parent="1">
          <mxGeometry x="595" y="517" width="50" height="30" as="geometry" />
        </mxCell>
        <mxCell id="Pvti1awx0MB7TDvEXVVF-46" value="8243" style="text;html=1;align=center;verticalAlign=middle;resizable=0;points=[];autosize=1;strokeColor=none;fillColor=none;fontColor=#143642;" vertex="1" parent="1">
          <mxGeometry x="800" y="330" width="50" height="30" as="geometry" />
        </mxCell>
        <mxCell id="Pvti1awx0MB7TDvEXVVF-47" value="8243" style="text;html=1;align=center;verticalAlign=middle;resizable=0;points=[];autosize=1;strokeColor=none;fillColor=none;fontColor=#143642;" vertex="1" parent="1">
          <mxGeometry x="810" y="515" width="50" height="30" as="geometry" />
        </mxCell>
        <mxCell id="Pvti1awx0MB7TDvEXVVF-48" value="9443" style="text;html=1;align=center;verticalAlign=middle;resizable=0;points=[];autosize=1;strokeColor=none;fillColor=none;fontColor=#143642;" vertex="1" parent="1">
          <mxGeometry x="600" y="326" width="50" height="30" as="geometry" />
        </mxCell>
        <mxCell id="Pvti1awx0MB7TDvEXVVF-49" value="9443" style="text;html=1;align=center;verticalAlign=middle;resizable=0;points=[];autosize=1;strokeColor=none;fillColor=none;fontColor=#143642;" vertex="1" parent="1">
          <mxGeometry x="532" y="405" width="50" height="30" as="geometry" />
        </mxCell>
        <mxCell id="Pvti1awx0MB7TDvEXVVF-50" value="443" style="text;html=1;align=center;verticalAlign=middle;resizable=0;points=[];autosize=1;strokeColor=none;fillColor=none;fontColor=#143642;" vertex="1" parent="1">
          <mxGeometry x="700" y="100" width="40" height="30" as="geometry" />
        </mxCell>
        <mxCell id="Pvti1awx0MB7TDvEXVVF-51" value="" style="endArrow=classic;startArrow=classic;html=1;rounded=0;strokeColor=#A8201A;fontColor=#143642;fillColor=#FAE5C7;entryX=0.5;entryY=1;entryDx=0;entryDy=0;exitX=0.5;exitY=0;exitDx=0;exitDy=0;dashed=1;" edge="1" parent="1" source="Pvti1awx0MB7TDvEXVVF-7" target="Pvti1awx0MB7TDvEXVVF-3">
          <mxGeometry width="50" height="50" relative="1" as="geometry">
            <mxPoint x="480" y="330" as="sourcePoint" />
            <mxPoint x="530" y="280" as="targetPoint" />
          </mxGeometry>
        </mxCell>
        <mxCell id="Pvti1awx0MB7TDvEXVVF-52" value="" style="endArrow=classic;startArrow=classic;html=1;rounded=0;strokeColor=#A8201A;fontColor=#143642;fillColor=#FAE5C7;entryX=0.5;entryY=1;entryDx=0;entryDy=0;exitX=0.5;exitY=0;exitDx=0;exitDy=0;dashed=1;" edge="1" parent="1" source="Pvti1awx0MB7TDvEXVVF-6" target="Pvti1awx0MB7TDvEXVVF-7">
          <mxGeometry width="50" height="50" relative="1" as="geometry">
            <mxPoint x="480" y="330" as="sourcePoint" />
            <mxPoint x="530" y="280" as="targetPoint" />
          </mxGeometry>
        </mxCell>
      </root>
    </mxGraphModel>
  </diagram>
</mxfile>
